<?xml version="1.0" encoding="UTF-8"?>
<svg id="Layer_1" data-name="Layer 1" xmlns="http://www.w3.org/2000/svg" xmlns:xlink="http://www.w3.org/1999/xlink" viewBox="0 0 1040.1 1040.1">
  <defs>
    <style>
      .cls-1 {
        fill: url(#linear-gradient-2);
      }

      .cls-2 {
        fill: url(#linear-gradient-4);
      }

      .cls-3 {
        fill: url(#linear-gradient-3);
      }

      .cls-4 {
        fill: url(#linear-gradient-5);
      }

      .cls-5 {
        fill: #08172c;
      }

      .cls-6 {
        fill: #1d469d;
      }

      .cls-7 {
        fill: url(#linear-gradient);
      }
    </style>
    <linearGradient id="linear-gradient" x1="216.66" y1="518.9" x2="513.42" y2="815.66" gradientUnits="userSpaceOnUse">
      <stop offset="0" stop-color="#1d439a"/>
      <stop offset=".25" stop-color="#1f459c"/>
      <stop offset=".28" stop-color="#20479e"/>
      <stop offset=".44" stop-color="#244ba0"/>
      <stop offset=".62" stop-color="#3157a7"/>
      <stop offset=".74" stop-color="#3f64af"/>
      <stop offset="1" stop-color="#3f64af"/>
    </linearGradient>
    <linearGradient id="linear-gradient-2" x1="295.74" y1="116.76" x2="295.74" y2="471.69" gradientUnits="userSpaceOnUse">
      <stop offset=".02" stop-color="#3abbce"/>
      <stop offset=".16" stop-color="#2fc1d6"/>
      <stop offset=".49" stop-color="#2254a5"/>
      <stop offset=".67" stop-color="#194797"/>
      <stop offset="1" stop-color="#202b5e"/>
    </linearGradient>
    <linearGradient id="linear-gradient-3" x1="232.43" y1="370.77" x2="746.19" y2="370.77" gradientUnits="userSpaceOnUse">
      <stop offset="0" stop-color="#25346e"/>
      <stop offset="1" stop-color="#4195d1"/>
    </linearGradient>
    <linearGradient id="linear-gradient-4" x1="544.26" y1="862.32" x2="785.24" y2="723.18" gradientUnits="userSpaceOnUse">
      <stop offset="0" stop-color="#4066b0"/>
      <stop offset="0" stop-color="#3f65af"/>
      <stop offset=".38" stop-color="#3f64af"/>
      <stop offset="1" stop-color="#243e8b"/>
    </linearGradient>
    <linearGradient id="linear-gradient-5" x1="496.11" y1="505.39" x2="841.12" y2="704.59" gradientUnits="userSpaceOnUse">
      <stop offset=".09" stop-color="#3b6fb7"/>
      <stop offset=".37" stop-color="#329fd9"/>
      <stop offset=".71" stop-color="#2e72b9"/>
      <stop offset="1" stop-color="#274ea2"/>
    </linearGradient>
  </defs>
  <rect class="cls-5" width="1040.1" height="1040.1" rx="166.47" ry="166.47"/>
  <g id="Generative_Object_0_0_" data-name="Generative Object (0, 0)">
    <polygon class="cls-6" points="359.04 540.06 359.04 589.23 319.46 562.32 359.04 540.06"/>
    <path class="cls-7" d="M498.6,684.18v146.3l-22.58-14.98-116.97-77.51-87.29-57.82-29.28-19.43c-6.27-4.16-10.04-11.19-10.04-18.71v-138.9l90.6,61.62,36.01,24.48,22.79,15.54,94.18,64.01,22.58,15.4Z"/>
    <path class="cls-1" d="M359.04,116.76v268.13l-126.61,86.8V215.68c0-7.58,3.74-14.68,9.99-18.97l116.62-79.95Z"/>
    <polygon class="cls-3" points="746.19 119.58 746.19 274.74 578.43 389.75 498.6 444.4 476.02 459.87 359.04 540.06 232.43 621.97 232.43 503.13 232.43 471.69 359.04 384.89 476.02 304.78 498.6 289.3 578.43 234.58 746.19 119.58"/>
    <polygon class="cls-2" points="805.69 637.69 805.83 765.71 803.65 767.18 746.19 806.57 578.43 921.51 578.43 781.74 701.31 697.55 746.19 666.81 805.62 636.34 805.69 637.69"/>
    <path class="cls-4" d="M796.03,619.55c6.01,4.09,9.62,10.87,9.66,18.14l.15,26.87v101.15s-227.4-151.65-227.4-151.65l-79.83-54.3-22.58-15.33v-4.22l22.58-15.47,78.71-53.95,1.13.84,167.76,114.02,49.84,33.91Z"/>
  </g>
</svg>